<svg xmlns="http://www.w3.org/2000/svg" xmlns:xlink="http://www.w3.org/1999/xlink" width="144" height="144" viewBox="0 0 144 144"><defs><style>.a,.c{fill:#fff;}.a{opacity:0.302;}.b{fill:url(#a);}</style><linearGradient id="a" x1="0.5" x2="0.5" y2="1" gradientUnits="objectBoundingBox"><stop offset="0" stop-color="#393939"/><stop offset="1" stop-color="#2f2e2f"/></linearGradient></defs><g transform="translate(-1217 -396)"><g transform="translate(544 -396)"><circle class="a" cx="72" cy="72" r="72" transform="translate(673 792)"/><path class="b" d="M49.46,0A49.46,49.46,0,1,1,0,49.46,49.46,49.46,0,0,1,49.46,0Z" transform="translate(695.54 814.54)"/></g><path class="c" d="M763.972,862.569l-29.285-20.246a1.01,1.01,0,0,0-1.583.833v40.493a1.009,1.009,0,0,0,1.583.833l29.285-20.246a1.014,1.014,0,0,0,0-1.667Z" transform="translate(544 -396)"/></g></svg>