<svg xmlns="http://www.w3.org/2000/svg" width="44.54" height="59.335" viewBox="0 0 44.54 59.335"><defs><style>.a{fill:#fff;}.b{fill:#f8c717;}.c{fill:#fcfcfc;}</style></defs><path class="a" d="M376.08,478.3H347.63a.933.933,0,0,1-.932-.934V419.9a.933.933,0,0,1,.932-.934H390.3a.935.935,0,0,1,.934.938l-.165,43.247a.926.926,0,0,1-.269.651l-14.062,14.221A.928.928,0,0,1,376.08,478.3Zm-27.516-1.867H375.69l13.519-13.671.158-41.931h-40.8Z" transform="translate(-346.698 -418.963)"/><g transform="translate(28.448 43.247)"><path class="a" d="M376.974,479.658a.921.921,0,0,1-.354-.07.934.934,0,0,1-.579-.864v-7.081c0-5.582,2.462-8.073,7.981-8.073h7.013a.933.933,0,0,1,.663,1.589L377.637,479.38A.924.924,0,0,1,376.974,479.658Zm7.048-14.221c-4.457,0-6.114,1.681-6.114,6.206v4.809l10.89-11.015Z" transform="translate(-376.041 -463.57)"/></g><g transform="translate(1.024 0.933)"><rect class="a" width="42.493" height="14.366"/></g><g transform="translate(12.112 4.027)"><path class="b" d="M360.8,431.278h-1.612v-1.425H360.8Zm3.262-2.965v2.965h-1.611v-8.161h3.225a3.209,3.209,0,0,1,2.192.731,2.419,2.419,0,0,1,.8,1.886,2.45,2.45,0,0,1-.8,1.885,3.284,3.284,0,0,1-2.192.7Zm0-1.263h1.613a1.3,1.3,0,0,0,1.015-.364,1.313,1.313,0,0,0,.343-.953,1.38,1.38,0,0,0-.343-.969,1.265,1.265,0,0,0-1.015-.384h-1.613Zm5.781,4.228v-8.161h2.772a3.3,3.3,0,0,1,3.407,3.422v1.336a3.272,3.272,0,0,1-3.407,3.4Zm1.63-6.9v5.637h1.07a1.694,1.694,0,0,0,1.358-.587,2.381,2.381,0,0,0,.49-1.555v-1.353a2.3,2.3,0,0,0-.49-1.538,1.65,1.65,0,0,0-1.358-.6Zm10.818,3.513h-3.388v3.385h-1.612v-8.161h5.564v1.263h-3.952v2.249h3.388Z" transform="translate(-359.191 -423.117)"/></g><g transform="translate(10.339 21.23)"><path class="c" d="M376.985,455.775a18.736,18.736,0,0,0-3.3.369,32.062,32.062,0,0,1-4.983-7.5c1.3-5.582.652-6.37.363-6.735-.308-.4-.743-1.044-1.232-1.044a4.8,4.8,0,0,0-1,.163,1.951,1.951,0,0,0-1.123,1.21c-.689,1.646.271,4.428,1.231,6.588a65.746,65.746,0,0,1-3.714,10.653c-3.714,1.72-5.69,3.4-5.854,5.014a2.363,2.363,0,0,0,1.088,2.214,1.48,1.48,0,0,0,.943.329c.87,0,1.721-.658,2.735-2.086a28.484,28.484,0,0,0,2.337-4.21,46.907,46.907,0,0,1,8.662-2.8c1.54,1.5,2.936,2.269,4.132,2.269a2.581,2.581,0,0,0,2.175-1.19,2.018,2.018,0,0,0,.38-2.123c-.38-.749-1.3-1.119-2.845-1.119Zm-17.56,9.593c-.453-.367-.433-.6-.417-.7.054-.55.907-1.521,3.008-2.71-1.594,2.965-2.445,3.35-2.591,3.4Zm8.046-22.714c.054-.019,1.033,1.1.109,3.185a2.387,2.387,0,0,1-.109-3.185Zm-2.012,15.868a70.063,70.063,0,0,0,2.61-7.486,34.644,34.644,0,0,0,3.75,5.49,50.94,50.94,0,0,0-6.36,2Zm12.649-.459a1.485,1.485,0,0,1-1.2.423c-.525,0-.707-.312-1.5-.936a16.336,16.336,0,0,1,1.775-.091,2.057,2.057,0,0,1,1.141.184,1.529,1.529,0,0,1-.216.42Z" transform="translate(-357.362 -440.861)"/></g></svg>