<svg xmlns="http://www.w3.org/2000/svg" width="45.246" height="43.823" viewBox="0 0 45.246 43.823"><defs><style>.a{fill:#fff;}</style></defs><g transform="translate(-240.595 -376.159)"><g transform="translate(240.595 376.159)"><path class="a" d="M278.188,397.163,263.568,384.5a2.341,2.341,0,0,0-3.063,0l-14.62,12.662a2.337,2.337,0,0,0-.807,1.768v18.418a.585.585,0,0,0,.584.585h10.528a.586.586,0,0,0,.585-.585v-12.47a2.338,2.338,0,0,1,2.339-2.339h5.848a2.338,2.338,0,0,1,2.339,2.339v12.47a.586.586,0,0,0,.585.585h10.527a.585.585,0,0,0,.584-.585V398.93A2.337,2.337,0,0,0,278.188,397.163Z" transform="translate(-239.414 -374.111)"/><path class="a" d="M285.016,393.4l-18.49-16.011a5.051,5.051,0,0,0-6.616,0l-7.188,6.224v-5.238H246.2v10.885L241.42,393.4a2.388,2.388,0,0,0-.126,3.494h0a2.387,2.387,0,0,0,3.251.116l17.018-14.736a2.526,2.526,0,0,1,3.308,0l17.018,14.736a2.388,2.388,0,1,0,3.126-3.61Z" transform="translate(-240.595 -376.159)"/></g></g></svg>