<svg xmlns="http://www.w3.org/2000/svg" xmlns:xlink="http://www.w3.org/1999/xlink" width="236.633" height="350.452" viewBox="0 0 236.633 350.452"><defs><style>.a{fill:#fca09e;}.b{fill:#fdb3b1;}.c{fill:#b15252;}.d{fill:url(#a);}.e{fill:url(#b);}.f{fill:#1c1c1c;}.g{fill:#2f2f2f;}.h{fill:url(#c);}.i{fill:url(#e);}</style><linearGradient id="a" x1="0.5" x2="0.5" y2="1" gradientUnits="objectBoundingBox"><stop offset="0" stop-color="#7a4ec0"/><stop offset="1" stop-color="#532663"/></linearGradient><linearGradient id="b" x1="0.5" x2="0.5" y2="1" gradientUnits="objectBoundingBox"><stop offset="0" stop-color="#7a4ec0"/><stop offset="1" stop-color="#522662"/></linearGradient><linearGradient id="c" x1="0.5" x2="0.5" y2="1" gradientUnits="objectBoundingBox"><stop offset="0" stop-color="#2f2f2f"/><stop offset="1" stop-color="#1a1a1a"/></linearGradient><linearGradient id="e" x1="0.5" x2="0.5" y2="1" gradientUnits="objectBoundingBox"><stop offset="0" stop-color="#393939"/><stop offset="1" stop-color="#2f2e2f"/></linearGradient></defs><g transform="translate(-173.336 -5834.899)"><g transform="translate(-1964.921 5638.553)"><path class="a" d="M2320.42,383.243s7.629,11.291,11.982,35.026c3.811,20.788,7.153,28.462,12.657,32.725s36.17,16.85,36.17,16.85l-2.293,5.372s-44.948-6.122-50-13.634-24.3-51.9-22.8-62.118S2320.42,383.243,2320.42,383.243Z" transform="translate(-97.31 -108.385)"/><g transform="translate(2330.757 491.75)"><path class="b" d="M2598.924,930.617c-.4,4.384,5.7,5.45,12.766,5.8s4.933,1.8,14.619,3.553,13.569-.9,14.27-2.205c.625-1.161-3.879-2.977-8.679-5.029-.6-.256-1.208-.52-1.813-.785-5.4-2.376-8.433-7.22-12.644-11.711-3.989-4.254-7.777-17.876-7.777-17.876l-13.163-2.811s3.7,12.259,4.979,17.493c.754,3.078-.36,6.52-1.348,9.14A17.182,17.182,0,0,0,2598.924,930.617Z" transform="translate(-2596.503 -899.556)"/><path class="c" d="M2615.006,973.187c7.069.352,4.933,1.8,14.619,3.553s13.569-.9,14.27-2.205c.625-1.161-3.879-2.977-8.678-5.029l-.075.081a27.581,27.581,0,0,1-14.673.175c-6.408-1.74-12.6-5.569-17.018-6.806a17.21,17.21,0,0,0-1.21,4.428C2601.835,971.768,2607.938,972.835,2615.006,973.187Z" transform="translate(-2599.819 -936.323)"/></g><path class="d" d="M2266.531,588.3s87.47-6.583,103.938,3.809,42.878,131.448,42.878,131.448a10.743,10.743,0,0,1-5.271,1.7c-3.385.366-10.842-1.624-10.842-1.624s-37.955-54.164-40.629-67.81-2.021-25.821-8.109-26.147-81.977,9.226-93.456-11-1.989-40.241-1.989-40.241Z" transform="translate(-64.434 -221.584)"/><g transform="translate(2297.286 505.799)"><path class="b" d="M2519.247,964.061c-.4,4.384,5.7,5.45,12.767,5.8s4.932,1.8,14.619,3.554,13.568-.9,14.27-2.205c.625-1.162-3.88-2.977-8.678-5.03-.6-.256-1.21-.52-1.814-.785-5.4-2.375-8.433-7.22-12.644-11.711-3.989-4.255-7.777-17.876-7.777-17.876L2516.826,933s3.7,12.26,4.98,17.493c.754,3.079-.36,6.52-1.348,9.139A17.219,17.219,0,0,0,2519.247,964.061Z" transform="translate(-2516.826 -933)"/><path class="c" d="M2535.331,1006.63c7.068.352,4.932,1.8,14.619,3.554s13.568-.9,14.27-2.205c.625-1.162-3.879-2.977-8.678-5.03l-.075.082a27.581,27.581,0,0,1-14.672.175c-6.408-1.74-12.6-5.569-17.019-6.807a17.208,17.208,0,0,0-1.21,4.429C2522.159,1005.212,2528.262,1006.278,2535.331,1006.63Z" transform="translate(-2520.143 -969.766)"/></g><path class="e" d="M2215.3,614.818s77.7,3.678,93.754,14.7,37.729,133.017,37.729,133.017a10.744,10.744,0,0,1-5.333,1.494c-3.4.234-10.771-2.045-10.771-2.045s-35.819-55.6-37.959-69.339-1.014-25.88-7.084-26.444-82.273,6.029-92.957-14.625S2215.3,614.818,2215.3,614.818Z" transform="translate(-30.334 -242.68)"/><path class="f" d="M2212.653,201.147c-3.448-2.276-7.729-2.785-10.744-2.807a5.1,5.1,0,0,1,2.368-.936c-1.844-.4-6.125,1.169-6.125,1.169-25.246-11.712-31.864,26.17-31.91,35.071s-.665,19.107-14.13,26.194c-26.495,13.945-6.841,42.685-6.841,42.685.192.131,10.518,20.653,10.518,20.653-.176-7.207,35.394-42.8,53.392-52.976,4.61-5.9,6.83-16.717,7-17.569-1.3,8.607-3.105,13.364-4.611,16.01C2227.064,256.175,2221.792,207.178,2212.653,201.147Z"/><path class="b" d="M2241.508,352.284s6.861.3,14.1.984c4.917.467,10.164,1.009,12.935,2.167,6.848,2.863,6.13,14.988-8.24,12.742S2240.5,355.879,2241.508,352.284Z" transform="translate(-59.809 -90.431)"/><path class="b" d="M2269.017,336.136c.084.045,2.05,10.43-7.359,10.015-6.176-.273-19.5-7.747-18.322-13.035.56-2.514,5.227-9.037,6.166-23.924l1.125.3,18.906,5.071s-.838,6-1.229,11.679C2267.972,331.011,2267.959,335.554,2269.017,336.136Z" transform="translate(-60.895 -65.442)"/><path class="a" d="M2279.7,314.979s-.838,6-1.23,11.68c-10.7-1.017-15.716-11.175-17.677-16.75Z" transform="translate(-71.06 -65.857)"/><path class="f" d="M2248.234,251.245s-5.026-9.252-5.869-16.932c-.6-5.483,3.5-25.388,23.491-21.148a27.484,27.484,0,0,1,11.087,5.058c4.185,3.252,10.085,10.065,1.844,27.122l-2.232,5.8Z" transform="translate(-60.343 -9.413)"/><path class="b" d="M2279.8,275.244s-25.393-1.272-24.357-17.074-1.544-26.608,14.713-26.463,19.008,6.38,19.945,11.739S2286.43,275.168,2279.8,275.244Z" transform="translate(-67.94 -20.506)"/><path class="f" d="M2270.724,227.571s-8.181,18.073-19.022,20.1-15.274-1.133-15.274-1.133a30.25,30.25,0,0,0,11.061-17.174S2266.073,218.4,2270.724,227.571Z" transform="translate(-56.931 -15.987)"/><path class="f" d="M2313.735,232.158s4.91,4.484,5.907,8.592,1.012,12.428,3.445,12.308c0,0,6.073-12.251.667-19.77C2318.024,225.314,2313.735,232.158,2313.735,232.158Z" transform="translate(-101.763 -19.183)"/><path class="g" d="M2262.612,458.472c-2.054,2.456-8.472,3.211-15.33,4.339-5.4.891-11.064,2.008-15.1,4.376-9.154,5.374-39.061,23.537-47.827,22.711-3.4-.32-2.763-6.807-.7-15.415,3.24-13.595,10.023-32.473,10.023-40.682,0-4.48,1.491-15.082,3.481-27.2q.243-1.465.492-2.957c3.937-23.566,9.391-51.354,9.391-51.354s6.082,13.271,17.934,13.271,9.1-10.12,9.1-10.12,10.813,1.272,13.367,4.023,9.035,14.646,10.321,17.891c0,0,.262,4.127-9.958,6.093,0,0,2.49,11.205,2.784,18.674.219,5.518-3.765,22.787-4.91,33.529-.407,3.8-.46,6.791.157,8.144.791,1.735,3.349,3.463,6.259,5.159C2257.87,452.313,2265.052,455.55,2262.612,458.472Z" transform="translate(-25.345 -90.434)"/><path class="h" d="M2252.093,509.943c6.56,11.184-17.79,14.546-21.821,16.914-9.154,5.374-37.147,24.86-45.912,24.034-3.4-.32-2.763-6.807-.7-15.415,3.24-13.595,10.023-32.473,10.023-40.682,0-4.48,1.491-15.082,3.481-27.2l10.551-10.13s11.305,29.221,22.083,34.01a90.593,90.593,0,0,0,15.883,5.169c-.407,3.8-.46,6.791.157,8.145C2246.626,506.519,2249.183,508.247,2252.093,509.943Z" transform="translate(-25.345 -151.425)"/><path class="b" d="M2205.858,371.117s-9.021-5.479-17.743,4.914,6.2,84.684,19.124,88.5c14.355,4.239,55.827-.679,55.827-.679l-.8-6.481s-44.149-8.465-45.984-10.823S2210.445,372.315,2205.858,371.117Z" transform="translate(-27.403 -100.516)"/><path class="g" d="M2199.066,352.284s-18.527,1.671-23.907,7.765-6.954,22.607-6.954,22.607,16.315,13.17,35.973,8.059Z" transform="translate(-17.367 -90.431)"/><g transform="translate(2239.995 333.4)"><rect class="f" width="24.471" height="2.891" transform="translate(0 33.41)"/><path class="f" d="M2426.324,558.507c.24-.956,22.5-35.905,22.5-35.905h49.521L2473.5,557.569Z" transform="translate(-2407.051 -522.602)"/><path class="h" d="M2431.284,558.9c.24-.957,22.568-36.3,22.568-36.3h47.366l-23.632,36.3Z" transform="translate(-2409.927 -522.602)"/><path class="i" d="M2523.4,562.55a3.954,3.954,0,0,1-3.447,2.564,1.766,1.766,0,0,1-1.681-2.564,3.956,3.956,0,0,1,3.447-2.565A1.767,1.767,0,0,1,2523.4,562.55Z" transform="translate(-2460.287 -544.281)"/></g><path class="b" d="M2359.657,574.489s14.375-2.782,16-2.086,10.665,8.81,9.738,10.433-4.637,2.783-8.811,1.391-13.215-2.087-14.838-4.173A13.615,13.615,0,0,1,2359.657,574.489Z" transform="translate(-128.395 -218.018)"/></g></g></svg>