<svg xmlns="http://www.w3.org/2000/svg" width="44.758" height="47.47" viewBox="0 0 44.758 47.47"><defs><style>.a{fill:#fff;}</style></defs><path class="a" d="M149.4,345.329h-2.713V323.948c-.129.007-.255.019-.385.019h-.316a7.448,7.448,0,0,1-5.764-2.73,7.45,7.45,0,0,1-5.764,2.73h-.316a7.45,7.45,0,0,1-5.764-2.73,7.45,7.45,0,0,1-5.764,2.73H122.3a7.45,7.45,0,0,1-5.764-2.73,7.448,7.448,0,0,1-5.764,2.73h-.316c-.13,0-.256-.012-.385-.019v21.381h-2.713A1.357,1.357,0,0,0,106,346.685v4.747a.678.678,0,0,0,.678.678h43.4a.678.678,0,0,0,.678-.678v-4.747A1.357,1.357,0,0,0,149.4,345.329Zm-21.7-2.034a.678.678,0,0,1-.678.678H114.816a.678.678,0,0,1-.678-.678V329.731a.678.678,0,0,1,.678-.678h12.207a.678.678,0,0,1,.678.678Zm14.919,4.069a.678.678,0,0,1-.678.678H133.8a.678.678,0,0,1-.678-.678V329.731a.678.678,0,0,1,.678-.678h8.138a.678.678,0,0,1,.678.678Z" transform="translate(-106 -304.64)"/><path class="a" d="M138.45,341.89h-1.356a1.7,1.7,0,1,0,0,3.391h1.356a1.7,1.7,0,1,0,0-3.391Zm11.82-23.057v-2.812a2.709,2.709,0,0,0-.357-1.343l-2.454-4.309A2.714,2.714,0,0,0,145.1,309H111.449a2.712,2.712,0,0,0-2.356,1.37l-2.455,4.309a2.708,2.708,0,0,0-.355,1.343v3.918h0v.928a4.074,4.074,0,0,0,4.069,4.069h.316a4.074,4.074,0,0,0,4.069-4.069v-2.374a1.7,1.7,0,0,1,3.391,0v2.374a4.074,4.074,0,0,0,4.069,4.069h.316a4.074,4.074,0,0,0,4.069-4.069v-2.034h-.033v-.339a1.7,1.7,0,0,1,3.391,0v1.446h.033v.928a4.074,4.074,0,0,0,4.069,4.069h.316a4.074,4.074,0,0,0,4.069-4.069v-2.374a1.7,1.7,0,0,1,3.391,0v2.374a4.074,4.074,0,0,0,4.069,4.069h.316a4.074,4.074,0,0,0,4.069-4.069v-2.034Z" transform="translate(-105.899 -309)"/></svg>