<svg xmlns="http://www.w3.org/2000/svg" width="120.583" height="20" viewBox="0 0 120.583 20"><defs><style>.a{fill:#ba9b52;font-size:20px;font-family:AcuminPro-Regular, Acumin Pro;}.b{fill:#fdc71b;}</style></defs><g transform="translate(-1466.417 -5069)"><text class="a" transform="translate(1495 5084)"><tspan x="0" y="0">/boostmnl</tspan></text><path class="b" d="M16.275,2.25H1.248A1.257,1.257,0,0,0,0,3.514v15a1.257,1.257,0,0,0,1.248,1.264H16.275a1.261,1.261,0,0,0,1.252-1.264v-15A1.261,1.261,0,0,0,16.275,2.25ZM5.3,17.273H2.7V8.909H5.3v8.365ZM4,7.766A1.506,1.506,0,1,1,5.5,6.26,1.507,1.507,0,0,1,4,7.766Zm11.037,9.507h-2.6V13.2c0-.97-.02-2.218-1.35-2.218-1.354,0-1.561,1.056-1.561,2.148v4.139h-2.6V8.909H9.421v1.142h.035A2.736,2.736,0,0,1,11.917,8.7c2.629,0,3.118,1.733,3.118,3.987Z" transform="translate(1466.417 5067.75)"/></g></svg>