<svg xmlns="http://www.w3.org/2000/svg" xmlns:xlink="http://www.w3.org/1999/xlink" width="1396.326" height="662.251" viewBox="0 0 1396.326 662.251"><defs><style>.a,.b{mix-blend-mode:screen;}.a,.b,.c{isolation:isolate;}.b,.c{fill:url(#a);}.c{mix-blend-mode:soft-light;}</style><linearGradient id="a" x1="0.5" x2="0.5" y2="1" gradientUnits="objectBoundingBox"><stop offset="0" stop-color="#6f654c"/><stop offset="1" stop-color="#383326"/></linearGradient></defs><g class="a" transform="translate(-523.674)"><path class="b" d="M1396.326,0V661.533c-79.7,4.566-161.643-12.936-235.744-44.419C1045.913,568.4,946.788,489.036,851.774,407.734c-83.962-71.843-169.12-147.821-273.605-182.255-102.566-33.8-214.218-24.233-319.451-48.16C157.816,154.381,61.649,97.544,5.688,9.383,3.729,6.3,1.845,3.162,0,0Z" transform="translate(523.674)"/><path class="c" d="M1396.326,419.577c-95.577-8.693-188.621-49.04-258.112-116.527-32.362-31.429-59.718-67.943-92.749-98.644-115.77-107.618-301.26-128.385-437.274-48.96-28.649,16.731-54.974,37.238-81.63,57.169-87.746-18.039-180.026-14.69-267.843-34.722C157.816,154.882,61.649,97.86,5.688,9.414,3.729,6.317,1.845,3.173,0,0H1396.326Z" transform="translate(523.674)"/></g></svg>