<svg xmlns="http://www.w3.org/2000/svg" xmlns:xlink="http://www.w3.org/1999/xlink" width="395.871" height="276.253" viewBox="0 0 395.871 276.253"><defs><style>.a{fill:url(#a);}.b{fill:#151515;}.c,.e{opacity:0.1;}.c,.e,.h{mix-blend-mode:multiply;isolation:isolate;}.d,.e{fill:#221f1f;}.f{fill:url(#b);}.g,.h{fill:#f8ac9b;}.h{opacity:0.5;}.i{fill:#f8c717;}.j{fill:url(#c);}.k{fill:url(#d);}.l{fill:url(#e);}.m{fill:url(#g);}</style><linearGradient id="a" y1="0.5" x2="1" y2="0.5" gradientUnits="objectBoundingBox"><stop offset="0" stop-color="#7a4ec0"/><stop offset="1" stop-color="#532663"/></linearGradient><linearGradient id="b" x1="0.5" x2="0.5" y2="1" gradientUnits="objectBoundingBox"><stop offset="0" stop-color="#2f2f2f"/><stop offset="1" stop-color="#1a1a1a"/></linearGradient><linearGradient id="c" x1="8.979" y1="-7.157" x2="9.873" y2="-7.157" gradientUnits="objectBoundingBox"><stop offset="0" stop-color="#fd9824"/><stop offset="0.107" stop-color="#fd9824"/><stop offset="1" stop-color="#edc152"/></linearGradient><linearGradient id="d" x1="0.5" x2="0.5" y2="1" gradientUnits="objectBoundingBox"><stop offset="0" stop-color="#7a4ec0"/><stop offset="1" stop-color="#522662"/></linearGradient><linearGradient id="e" x1="0.469" y1="0.475" x2="0.795" y2="1.036" xlink:href="#a"/><linearGradient id="g" x1="0.683" y1="-6.594" x2="0.423" y2="3.478" xlink:href="#a"/></defs><g transform="translate(-1159.239 -1937.862)"><path class="a" d="M1271.525,2515.063l-22.608-130.433H1172.08a12.841,12.841,0,0,0-12.841,12.841v117.592Z" transform="translate(0 -300.948)"/><path class="b" d="M1463.126,2390.776a34.656,34.656,0,0,1-4.213-2.491c-41.037-28.317-81.012-100.553-89.493-111.458-4.711-6.057-23.666-19.206-40.8-17.3-2.581.287-5.247.744-7.307,2.65-.23.214-.465.417-.692.638-8.794,8.552-17.269,6.467-23.084,2.9a61.369,61.369,0,0,1-9.267-6.483,5.944,5.944,0,0,0-1.231-.049c-4.356.282-13.181.906-22.745,1.876-10.249,1.04-21.342,2.478-28.7,4.32-1.643.412-.9-.286-2.117.165,0,0-24.674,7.085-33.731,46.992,0,0-25.331,74.895-9.456,81.807,13.047,5.681,39.047,6.522,39.047,6.522l.521,30.53H1375.6c-3.032-27.186-4.422-37.909-4.651-52.865,0-.074,0-.153,0-.227a43.154,43.154,0,0,1,.039-4.8,26.374,26.374,0,0,1,.714-6.02c.045-.152.084-.34.135-.469,3.178-8.241,47.8,36.447,76.77,35.431Z" transform="translate(-17.221 -217.28)"/><g class="c" transform="translate(1218.37 2043.66)"><path class="d" d="M1421.788,2262.812c-8.794,8.552-17.269,6.467-23.084,2.9a61.369,61.369,0,0,1-9.267-6.483,5.944,5.944,0,0,0-1.231-.049c-4.356.282-13.181.906-22.745,1.876-10.249,1.04-21.342,2.478-28.7,4.32-.268,4.269,14.622.542,25.531-.047,11.585-.626,21.667,12.724,41.619,12.307a26.457,26.457,0,0,0,25.162-18.005,11.148,11.148,0,0,0-6.592,2.541C1422.25,2262.388,1422.015,2262.591,1421.788,2262.812Z" transform="translate(-1336.755 -2259.171)"/></g><path class="e" d="M1317.983,2684.546l95.917,9.462-95.4,15.32Z" transform="translate(-105.866 -500.961)"/><path class="e" d="M1335.442,2380.239s6.137,46.956.458,64.9c29.313-.832,82.936,23.553,82.936,23.553l-75.229-29.863S1342.337,2403.31,1335.442,2380.239Z" transform="translate(-117.509 -297.337)"/><path class="e" d="M1581.993,2657.718l-4.245,17.7-13.771.387,11.342-3.109,4.9-18.536,2.538.213Z" transform="translate(-269.919 -480.697)"/><g transform="translate(1260.256 1937.862)"><path class="f" d="M1463.929,1997.525a42.869,42.869,0,0,0,6.481,14.2,37.731,37.731,0,0,1,2.969,4.893c1.265,2.5,1.469,11.259,4.37,11.734,1.958.321,1.735-6.6,2.991-7.981a12.8,12.8,0,0,0,2.483-4.878c2.764-8.651,3.65-18.485,10.361-24.906a21.544,21.544,0,0,1,14.436-5.612c5.843-.095,10.915,3.911,16.5,3.671,10.633-.458,22.251-8.439,26.612-17.058a23.363,23.363,0,0,0-.076-21.368,23.98,23.98,0,0,0-18.9-12.307,10.613,10.613,0,0,0-5.3.735,14.47,14.47,0,0,0-3.334,2.548,45.329,45.329,0,0,1-17,9.565c-7.908,2.433-16.43,2.8-24.633,4.316-4.731.873-9.644,2.291-12.69,5.706-3.855,4.322-5.962,14.277-6.379,21.189A38.9,38.9,0,0,0,1463.929,1997.525Z" transform="translate(-1462.499 -1937.862)"/><path class="g" d="M1536.027,2191.31l-4.182,8.484a19.193,19.193,0,0,1-22.388,10l-3.921-1.1a13.365,13.365,0,0,1-9.668-14.462l3.476-29,34.5,10.531Z" transform="translate(-1484.689 -2089.497)"/><path class="h" d="M1517.528,2185.736s3.013,20.75,10.363,24.444,19.654.869,19.654.869l2.991-6.068s-7.812,2.777-12.942,1.252-4.569-1.283-5.13-1.525l-.561-.241S1522.77,2201.488,1517.528,2185.736Z" transform="translate(-1499.198 -2103.168)"/><path class="g" d="M1542.581,2062.031c2.51-7.145-1.009-9.438-6.127-10.246-4.766-.753-10.919-.219-14.9-1.1a102.829,102.829,0,0,0-12.62-1.747c-7.32-.7-10.492,5.491-11.7,9.679-.02.07-.041.146-.061.22-1.109,4.026-2.328,13.65-4.076,16.713-1.78,3.118-4.4-12.158-10.542-13.8a8.517,8.517,0,0,0-4.177-.3,7.429,7.429,0,0,0-5.77,5.842c-.709,3.886,1.094,7.85,3.492,11.069s5.415,5.979,7.694,9.279c4.555,6.6,5.975,15.07,11.481,20.942,6.182,6.593,16.756,8.344,25.2,5.133s14.673-10.765,17.342-19.22C1541.177,2083.835,1538.891,2072.53,1542.581,2062.031Z" transform="translate(-1469.133 -2011.901)"/><path class="h" d="M1566.452,2055.01a63.471,63.471,0,0,0,19.5-3.226c-4.766-.753-10.919-.219-14.9-1.1a102.833,102.833,0,0,0-12.621-1.747c-7.32-.7-10.492,5.491-11.7,9.679-.02.07-.041.146-.061.22C1549.721,2055.7,1556.844,2055.141,1566.452,2055.01Z" transform="translate(-1518.627 -2011.901)"/><path class="i" d="M1511.633,1964.753l7.995-1.023,5.86-3.3-14.324,1.646a21.255,21.255,0,0,0-18.17,16.09l-3.341,14.156c-7.372-.448-14.085,4.006-15.709,10.887-1.835,7.774,3.517,15.69,11.955,17.681s16.765-2.7,18.6-10.471-3.515-15.686-11.95-17.68l3.281-13.9A18.542,18.542,0,0,1,1511.633,1964.753Z" transform="translate(-1469.89 -1952.913)"/><g transform="translate(57.087 54.571)"><path class="j" d="M1634.008,2136.374l-.129-.032.709-2.589c.064.009,4.594,1.142,14.349.12a3.536,3.536,0,0,0,2.178-1.913c3.24-6.373-.078-19.434-2.829-25.844.2-1.416.45-2.9.727-4.428.424.986,9.165,22.778,4.735,31.5a6.169,6.169,0,0,1-4.012,3.31l-.236.044C1639.762,2137.573,1634.857,2136.574,1634.008,2136.374Z" transform="translate(-1633.879 -2101.688)"/></g><path class="k" d="M1609.117,2195.719c-.079,2.231-4.11,3.781-9,3.464s-8.792-2.383-8.713-4.613,4.11-3.781,9-3.464S1609.2,2193.488,1609.117,2195.719Z" transform="translate(-1548.463 -2106.722)"/></g><g transform="translate(1264.39 2111.91)"><path class="l" d="M1630.838,2698.684l-73.971-1.007-81.957,6.473v9.062l130.377.12Z" transform="translate(-1474.909 -2621.627)"/><path class="a" d="M1852.237,2473.433l115.37-4.062-62.891,91.667-114.482.038Z" transform="translate(-1685.199 -2469.371)"/></g><path class="g" d="M1611.728,2647.068s25.075-4.681,32.284-4.6,16.636.417,21.529,6.09,11.383,16.5,8.433,16.9-4.875.492-6.721-.519-10.2-8.088-16.935-7.77-8.125,4.459-10.652,4.682-9.857.341-12.242-.8-19.75,2.8-19.75,2.8Z" transform="translate(-299.059 -472.896)"/><rect class="m" width="315.818" height="10.593" transform="translate(1239.292 2203.522)"/></g></svg>