<svg xmlns="http://www.w3.org/2000/svg" width="57.297" height="50.93" viewBox="0 0 57.297 50.93"><defs><style>.a{fill:#fff;}</style></defs><path class="a" d="M27.383,24.917a1.733,1.733,0,0,0,2.536,0L40.752,13.558a8.245,8.245,0,0,0-.557-11.817,7.561,7.561,0,0,0-10.434.766L28.647,3.671l-1.1-1.154a7.552,7.552,0,0,0-10.434-.776,8.254,8.254,0,0,0-.557,11.817Zm28.846,7.719a3.293,3.293,0,0,0-4.237,0L42.8,39.987a6.333,6.333,0,0,1-3.979,1.393H27.055a1.591,1.591,0,1,1,0-3.183h7.788a3.312,3.312,0,0,0,3.312-2.646,3.187,3.187,0,0,0-3.143-3.72H19.1a11.707,11.707,0,0,0-7.371,2.616L7.1,38.2H1.591A1.6,1.6,0,0,0,0,39.788v9.549a1.6,1.6,0,0,0,1.591,1.591h35.49a6.374,6.374,0,0,0,3.979-1.393L56.1,37.5A3.181,3.181,0,0,0,56.229,32.636Z" transform="translate(0 0.001)"/></svg>