<svg xmlns="http://www.w3.org/2000/svg" xmlns:xlink="http://www.w3.org/1999/xlink" width="460" height="460" viewBox="0 0 460 460"><defs><style>.a{fill:url(#a);}.b{clip-path:url(#b);}.c{fill:url(#c);}.d{fill:#f7a491;}.e{fill:#1c1c1c;}.f{fill:#f8a492;}.g{fill:#f47458;}.h{fill:#343434;}.i{fill:#fff;}</style><linearGradient id="a" x1="0.5" x2="0.5" y2="1" gradientUnits="objectBoundingBox"><stop offset="0" stop-color="#790aff"/><stop offset="1" stop-color="#4c05ff"/></linearGradient><clipPath id="b"><circle class="a" cx="230" cy="230" r="230" transform="translate(476 5743)"/></clipPath><linearGradient id="c" x1="0.5" x2="0.5" y2="1" gradientUnits="objectBoundingBox"><stop offset="0" stop-color="#2f2f2f"/><stop offset="1" stop-color="#1a1a1a"/></linearGradient></defs><g class="b" transform="translate(-476 -5743)"><g transform="translate(-2723.439 4809.838)"><path class="c" d="M3266.414,1212.122l-2.406,2.161a2.954,2.954,0,0,1-4.16-.1l-42.7-47.1a2.923,2.923,0,0,1,.322-4.13l2.406-2.161a2.954,2.954,0,0,1,4.16.105l42.7,47.1A2.923,2.923,0,0,1,3266.414,1212.122Z"/><path class="d" d="M3411.174,1173.858c-5.707-4.656-49.842,14.776-49.281,21.54s-30.8,72.343-30.8,72.343l-54.188-43.353-.022.013c-.48-1.568-5.616-18.429-5.866-21.446-.262-3.164-9.418-8.7-13.671-7.885s3.636,6.168,4.154,7.151c1.41,2.675-4.041,3.678-4.041,3.678s-15.657-8.622-15.989-13.692-3.566-15.7-6.948-13.476c-1.745,1.148-1.729,8.688-1.184,12.265-1.005-4.061-2.431-8.647-3.816-9.1-2.534-.83-3.793,2.4-3.333,3.99s4.55,18.83,5.792,20.771c1.215,1.9,26.5,22.336,30.142,26.773,0,0,70.09,80.4,75.08,82.5,4.378,1.845,19.991-25.861,34.741-44.254S3429.008,1188.408,3411.174,1173.858Z"/><path class="e" d="M3344.557,1227.755l52.378,5.365s2.4-43.087,2.4-63.64c0-24.935-2.116-57.052-5.118-56.361-8.423,1.94-19.766,6.606-26.52,15.916C3344.333,1161.253,3344.557,1227.755,3344.557,1227.755Z"/><path class="e" d="M3370.289,1165.083c-1.1,7.6-21.232,214.287-21.232,214.287,95.371,46.219,163.355-2.509,163.355-2.509s-18.478-134.4-14.738-154.15c2.474-13.069,5.559-99.918-2.881-102.351-10.832-3.122-23.252-6.436-36.789-7.846-11.556-1.2-56.444-1.9-64.475.806C3393.529,1113.32,3374.9,1133.111,3370.289,1165.083Z"/><path class="d" d="M3337.206,1315.929a12.165,12.165,0,0,1-1.438-1.073c1.695-20.249,1.389-39.87-4.944-46.5.152-.318,1.537-3.271,2.982-6.332,7.341,5.7,10.828,20.83,9.46,45.4a41.986,41.986,0,0,1-.969,5.088C3340.171,1314.85,3338.239,1316.364,3337.206,1315.929Z"/><path class="f" d="M3591.512,1381.56a5.872,5.872,0,0,0,.023-1.332c-1.405-14.313-13.249-134.505-15.244-139.615-1.8-4.613-54.92-80.844-54.92-80.844l-26.108,35.691,51.086,68.374c1.145,4.346,19.576,85.481,19.576,85.481s3.778,14.789,5.471,23.649c-.772,2.134-1.53,4.149-2.2,5.8a53.358,53.358,0,0,1-5.505,8.877c-2.283,3.071-6.058,9.78-6.523,11.575-.542,2.088-1.517,6.426-2.068,9.044s-1.309,5.667-1.436,7.088a13.729,13.729,0,0,1-1.65,3.807,2.285,2.285,0,0,0,2.69,3.3c1.856-.619,3.3-3.029,4.192-4.531,2.513-4.24,3.854-11.983,4.479-11.573s2.827,13.544,3.176,15.03,2.991,16.737,4.482,19.524,3.464,2.321,3.988.575c.451-1.5-1.647-22.842-1.647-22.842s-.261-2.722.928-1.871,3.13,20.222,3.956,23.056,2.71,4.338,4.308,2.06c1.945-2.772-1.4-23.32-1.4-23.32s-.374-2.583.726-2.342,2.477,16.751,3.333,18.178,3.015,1.941,4.046-.44c1.212-2.8-1.93-21.121-1.93-21.121s.155-1.458.841-.974,2.863,14.474,4.281,15.77a1.5,1.5,0,0,0,2.184.032c2.6-1.782-1.387-15.091-1.348-21.707s-3.02-14.053-2.108-21.932C3591.25,1383.536,3591.41,1382.323,3591.512,1381.56Z"/><path class="e" d="M3562.871,1208.049l-45.375,30.568s-25.574-38.185-39.3-51.779c-17.2-17.03,6.265-69.2,17.345-66.249C3520.322,1127.191,3562.871,1208.049,3562.871,1208.049Z"/><path class="d" d="M3454.669,1067.83l6.787,44.886s-24.786,53.444-39.582,48.809c-12.415-3.888-4.777-51.177-4.777-51.177s6.766-25.4,4.737-38.1S3454.669,1067.83,3454.669,1067.83Z"/><path class="g" d="M3421.834,1072.244c-2.029-12.708,32.835-4.414,32.835-4.414l.563,3.723a20.707,20.707,0,0,1-3.781,6.256c-7.787,8.41-19.96,13.461-30.484,13.842C3422.02,1084.8,3422.666,1077.455,3421.834,1072.244Z"/><path class="d" d="M3460.39,1004.329c.984-.359,7.9,51.122-5.221,65.287s-38.679,18.8-47.847,7.645c-10.14-12.34-9.632-67.67,10.765-82.242S3460.39,1004.329,3460.39,1004.329Z"/><path class="h" d="M3425.852,967.48a56.619,56.619,0,0,1,29.729,17.013c7.157.848,16.888,4.818,26.935,21.51,12.353,20.524,3.23,43.263-11.151,54.419s-14.18,24.043-14.18,24.043l-2.274-6.665a37.4,37.4,0,0,1-1.8-15.7,30.807,30.807,0,0,1,2.326-9.441c3.46-7.45-7.429-12.4-10.482-18.6-2.35-4.773-2.465-15.692-6.169-23.582l-4.423-6.023s-10.206-7.968-20.189-5.72S3405.624,963.342,3425.852,967.48Z"/><path class="d" d="M3445.624,1043.222c-.1,6.281,2.741,11.423,6.356,11.485s6.628-4.98,6.733-11.261-2.742-11.423-6.357-11.485S3445.729,1036.94,3445.624,1043.222Z"/><path class="i" d="M3424.32,1057.734l-19.774-1.027s.067,7.561,8.75,8.264C3423.883,1065.829,3424.32,1057.734,3424.32,1057.734Z"/></g></g></svg>