<svg xmlns="http://www.w3.org/2000/svg" xmlns:xlink="http://www.w3.org/1999/xlink" width="1044" height="536" viewBox="0 0 1044 536"><defs><style>.a,.d{fill:#fff;}.a{stroke:#707070;}.b{clip-path:url(#a);}.c{mix-blend-mode:screen;fill:url(#b);}.c,.d{isolation:isolate;}.d{opacity:0.3;mix-blend-mode:soft-light;}.e{fill:none;}</style><clipPath id="a"><rect class="a" width="1044" height="536" transform="translate(876 5199)"/></clipPath><linearGradient id="b" x1="1" y1="0.5" x2="0" y2="0.5" gradientUnits="objectBoundingBox"><stop offset="0" stop-color="#6f654c"/><stop offset="1" stop-color="#383326"/></linearGradient></defs><g class="b" transform="translate(-876 -5199)"><g transform="translate(-265.999 5199)"><path class="c" d="M1034.532-219.788V263.639c-59.051,3.334-119.76-9.456-174.662-32.46-84.957-35.6-158.4-93.595-228.794-153.01-62.207-52.5-125.3-108.022-202.713-133.186-75.991-24.7-158.713-17.709-236.68-35.193-74.758-16.762-146.008-58.3-187.469-122.721-1.451-2.256-2.847-4.546-4.214-6.857Z" transform="translate(1151.468 219.788)"/><path class="d" d="M1034.532,85.833C963.72,79.5,894.784,50.112,843.3.954,819.32-21.939,799.053-48.533,774.58-70.9c-85.773-78.389-223.2-93.516-323.974-35.66-21.226,12.184-40.73,27.121-60.479,41.639-65.01-13.14-133.381-10.7-198.444-25.291-74.758-16.762-146.008-58.3-187.469-122.721-1.451-2.256-2.847-4.546-4.214-6.857H1034.532Z" transform="translate(1151.468 219.788)"/><rect class="e" width="2186" height="1457" transform="translate(0 0)"/></g></g></svg>